<?xml version="1.0" encoding="UTF-8"?>
<svg version="1.1" xmlns="http://www.w3.org/2000/svg" 
width="100" height="100"
viewBox="0.5 0.5 110.5 100">

<path d="M0 0 C1.06367294 0.00222061 2.12734589 0.00444122 3.22325134 0.00672913 C5.02500572 0.00684242 5.02500572 0.00684242 6.86315918 0.00695801 C8.17042465 0.01211929 9.47769012 0.01728058 10.8245697 0.02259827 C12.16835477 0.02446253 13.51214052 0.02588639 14.85592651 0.02688599 C18.39873622 0.0307105 21.94150515 0.0405402 25.48429871 0.05158997 C29.09706572 0.06180552 32.7098393 0.06638392 36.32261658 0.07142639 C43.41573384 0.08216254 50.5088167 0.09975879 57.60191345 0.12025452 C57.60191345 3.75025452 57.60191345 7.38025452 57.60191345 11.12025452 C41.43191345 11.12025452 25.26191345 11.12025452 8.60191345 11.12025452 C10.97378845 15.71962952 13.34566345 20.31900452 15.78941345 25.05775452 C16.5269989 26.48982239 17.26458435 27.92189026 18.02452087 29.39735413 C21.44986317 36.02924238 24.90926748 42.63198387 28.60191345 49.12025452 C31.0838197 46.02721867 32.84471231 42.84835879 34.5980072 39.29603577 C35.43622009 37.63024475 35.43622009 37.63024475 36.29136658 35.93080139 C37.46064305 33.59094198 38.62206198 31.24714013 39.77574158 28.89955139 C40.33583923 27.79289124 40.89593689 26.68623108 41.4730072 25.54603577 C41.9775946 24.52936829 42.48218201 23.51270081 43.00205994 22.46522522 C44.60191345 20.12025452 44.60191345 20.12025452 46.65000916 19.27357483 C48.95940028 19.09217425 51.05561746 19.25383299 53.35191345 19.55775452 C54.1511322 19.65959045 54.95035095 19.76142639 55.77378845 19.86634827 C56.3770697 19.95013733 56.98035095 20.03392639 57.60191345 20.12025452 C56.93826226 23.30523441 55.81044222 25.89213828 54.3011322 28.76869202 C53.82401794 29.68167053 53.34690369 30.59464905 52.85533142 31.53529358 C52.33857849 32.51208069 51.82182556 33.4888678 51.28941345 34.49525452 C50.7597699 35.50297913 50.23012634 36.51070374 49.68443298 37.54896545 C34.67520975 66.01031007 34.67520975 66.01031007 30.60191345 72.12025452 C29.94191345 72.12025452 29.28191345 72.12025452 28.60191345 72.12025452 C20.96733481 57.95996733 13.37828641 43.77904441 5.97691345 29.49525452 C5.41020935 28.40172668 4.84350525 27.30819885 4.2596283 26.18153381 C3.19807339 24.12709046 2.14054614 22.07055914 1.0877533 20.01161194 C0.09761276 18.08485638 -0.90731756 16.16562935 -1.92689514 14.25428772 C-2.39176331 13.36829895 -2.85663147 12.48231018 -3.33558655 11.56947327 C-3.74937561 10.79434387 -4.16316467 10.01921448 -4.5894928 9.22059631 C-5.39808655 7.12025452 -5.39808655 7.12025452 -4.77308655 3.55775452 C-2.84667339 0.14274936 -2.84667339 0.14274936 0 0 Z " fill="#FCFCF9" transform="translate(42.39808654785156,13.879745483398438)"/>
<path d="M0 0 C0.66 0 1.32 0 2 0 C9.63457864 14.16028719 17.22362704 28.34121011 24.625 42.625 C25.1917041 43.71852783 25.7584082 44.81205566 26.34228516 45.9387207 C27.40384006 47.99316406 28.46136731 50.04969538 29.51416016 52.10864258 C30.50430069 54.03539814 31.50923101 55.95462517 32.52880859 57.8659668 C33.22611084 59.19494995 33.22611084 59.19494995 33.9375 60.55078125 C34.35128906 61.32591064 34.76507813 62.10104004 35.19140625 62.8996582 C36 65 36 65 35.375 68.5625 C34 71 34 71 33 72 C31.1281906 72.09386381 29.2528194 72.11743804 27.37866211 72.11352539 C26.17749252 72.11344986 24.97632294 72.11337433 23.73875427 72.11329651 C22.4314888 72.10813522 21.12422333 72.10297394 19.77734375 72.09765625 C18.43355868 72.09579198 17.08977293 72.09436812 15.74598694 72.09336853 C12.20317723 72.08954402 8.6604083 72.07971432 5.11761475 72.06866455 C1.50484773 72.05844899 -2.10792584 72.0538706 -5.72070312 72.04882812 C-12.81382039 72.03809198 -19.90690325 72.02049572 -27 72 C-27 68.37 -27 64.74 -27 61 C-10.83 61 5.34 61 22 61 C19.628125 56.400625 17.25625 51.80125 14.8125 47.0625 C13.70612183 44.91439819 13.70612183 44.91439819 12.57739258 42.72290039 C9.15205028 36.09101214 5.69264597 29.48827065 2 23 C-0.48190625 26.09303585 -2.24279886 29.27189573 -3.99609375 32.82421875 C-4.55490234 33.93474609 -5.11371094 35.04527344 -5.68945312 36.18945312 C-6.8587296 38.52931253 -8.02014853 40.87311438 -9.17382812 43.22070312 C-9.73392578 44.32736328 -10.29402344 45.43402344 -10.87109375 46.57421875 C-11.37568115 47.59088623 -11.88026855 48.60755371 -12.40014648 49.6550293 C-14 52 -14 52 -16.0480957 52.84667969 C-18.35748683 53.02808027 -20.45370401 52.86642153 -22.75 52.5625 C-23.54921875 52.46066406 -24.3484375 52.35882813 -25.171875 52.25390625 C-25.77515625 52.17011719 -26.3784375 52.08632812 -27 52 C-26.3363488 48.8150201 -25.20852877 46.22811624 -23.69921875 43.3515625 C-23.22210449 42.43858398 -22.74499023 41.52560547 -22.25341797 40.58496094 C-21.73666504 39.60817383 -21.21991211 38.63138672 -20.6875 37.625 C-20.15785645 36.61727539 -19.62821289 35.60955078 -19.08251953 34.57128906 C-4.0732963 6.10994445 -4.0732963 6.10994445 0 0 Z " fill="#69C3A5" transform="translate(27,14)"/>
<rect x="71.9902" y="49" width="8" height="8" transform="rotate(29.9196 40 120)" fill="#69C3A4"/>
</svg>
