<svg width="205" height="31" 
viewBox="0 0 205 31" 
fill="none" 
xmlns="http://www.w3.org/2000/svg">
<rect x="197.995" y="12" 
    width="8" height="8" 
    transform="rotate(29.9196 197.995 12)" 
    fill="#69C3A4"/>
<path d="M8.672 22.288C7.328 22.288 6.12267 22.064 5.056 21.616C3.98933 21.1467 3.14667 20.5067 2.528 19.696C1.90933 18.864 1.568 17.9147 1.504 16.848H4.512C4.59733 17.7227 5.00267 18.4373 5.728 18.992C6.47467 19.5467 7.44533 19.824 8.64 19.824C9.74933 19.824 10.624 19.5787 11.264 19.088C11.904 18.5973 12.224 17.9787 12.224 17.232C12.224 16.464 11.8827 15.8987 11.2 15.536C10.5173 15.152 9.46133 14.7787 8.032 14.416C6.73067 14.0747 5.664 13.7333 4.832 13.392C4.02133 13.0293 3.31733 12.5067 2.72 11.824C2.144 11.12 1.856 10.2027 1.856 9.072C1.856 8.176 2.12267 7.35467 2.656 6.608C3.18933 5.86133 3.94667 5.27467 4.928 4.848C5.90933 4.4 7.02933 4.176 8.288 4.176C10.2293 4.176 11.7973 4.66667 12.992 5.648C14.1867 6.62933 14.8267 7.97333 14.912 9.68H12C11.936 8.76267 11.5627 8.02667 10.88 7.472C10.2187 6.91733 9.32267 6.64 8.192 6.64C7.14667 6.64 6.31467 6.864 5.696 7.312C5.07733 7.76 4.768 8.34667 4.768 9.072C4.768 9.648 4.94933 10.128 5.312 10.512C5.696 10.8747 6.16533 11.1733 6.72 11.408C7.296 11.6213 8.08533 11.8667 9.088 12.144C10.3467 12.4853 11.3707 12.8267 12.16 13.168C12.9493 13.488 13.6213 13.9787 14.176 14.64C14.752 15.3013 15.0507 16.1653 15.072 17.232C15.072 18.192 14.8053 19.056 14.272 19.824C13.7387 20.592 12.9813 21.2 12 21.648C11.04 22.0747 9.93067 22.288 8.672 22.288ZM36.2868 4.464L25.7268 30.256H22.7188L26.1748 21.808L19.1028 4.464H22.3348L27.8388 18.672L33.2788 4.464H36.2868ZM49.758 4.144C51.8913 4.144 53.6193 4.79467 54.942 6.096C56.2647 7.376 56.926 9.232 56.926 11.664V22H54.046V12.08C54.046 10.3307 53.6087 8.99733 52.734 8.08C51.8593 7.14133 50.6647 6.672 49.15 6.672C47.614 6.672 46.3873 7.152 45.47 8.112C44.574 9.072 44.126 10.4693 44.126 12.304V22H41.214V4.464H44.126V6.96C44.702 6.064 45.4807 5.37067 46.462 4.88C47.4647 4.38933 48.5633 4.144 49.758 4.144ZM67.2348 6.864V17.2C67.2348 18.0533 67.4161 18.6613 67.7788 19.024C68.1414 19.3653 68.7708 19.536 69.6667 19.536H71.8108V22H69.1868C67.5654 22 66.3494 21.6267 65.5388 20.88C64.7281 20.1333 64.3228 18.9067 64.3228 17.2V6.864H62.0508V4.464H64.3228V0.0479984H67.2348V4.464H71.8108V6.864H67.2348ZM76.251 13.168C76.251 11.376 76.6137 9.808 77.339 8.464C78.0643 7.09867 79.0563 6.04267 80.315 5.296C81.595 4.54933 83.0137 4.176 84.571 4.176C86.107 4.176 87.4403 4.50667 88.571 5.168C89.7017 5.82933 90.5443 6.66133 91.099 7.664V4.464H94.043V22H91.099V18.736C90.523 19.76 89.659 20.6133 88.507 21.296C87.3763 21.9573 86.0537 22.288 84.539 22.288C82.9817 22.288 81.5737 21.904 80.315 21.136C79.0563 20.368 78.0643 19.2907 77.339 17.904C76.6137 16.5173 76.251 14.9387 76.251 13.168ZM91.099 13.2C91.099 11.8773 90.8323 10.7253 90.299 9.744C89.7657 8.76267 89.0403 8.016 88.123 7.504C87.227 6.97067 86.235 6.704 85.147 6.704C84.059 6.704 83.067 6.96 82.171 7.472C81.275 7.984 80.5603 8.73067 80.027 9.712C79.4937 10.6933 79.227 11.8453 79.227 13.168C79.227 14.512 79.4937 15.6853 80.027 16.688C80.5603 17.6693 81.275 18.4267 82.171 18.96C83.067 19.472 84.059 19.728 85.147 19.728C86.235 19.728 87.227 19.472 88.123 18.96C89.0403 18.4267 89.7657 17.6693 90.299 16.688C90.8323 15.6853 91.099 14.5227 91.099 13.2ZM110.116 22L105.956 15.472L101.956 22H98.916L104.58 13.296L98.916 4.464H102.212L106.372 10.96L110.34 4.464H113.38L107.748 13.136L113.412 22H110.116ZM126.821 4.144C128.954 4.144 130.682 4.79467 132.005 6.096C133.327 7.376 133.989 9.232 133.989 11.664V22H131.109V12.08C131.109 10.3307 130.671 8.99733 129.797 8.08C128.922 7.14133 127.727 6.672 126.213 6.672C124.677 6.672 123.45 7.152 122.533 8.112C121.637 9.072 121.189 10.4693 121.189 12.304V22H118.277V4.464H121.189V6.96C121.765 6.064 122.543 5.37067 123.525 4.88C124.527 4.38933 125.626 4.144 126.821 4.144ZM148.393 22.288C146.751 22.288 145.257 21.9147 143.913 21.168C142.591 20.4213 141.545 19.3653 140.777 18C140.031 16.6133 139.657 15.0133 139.657 13.2C139.657 11.408 140.041 9.82933 140.809 8.464C141.599 7.07733 142.665 6.02133 144.009 5.296C145.353 4.54933 146.857 4.176 148.521 4.176C150.185 4.176 151.689 4.54933 153.033 5.296C154.377 6.02133 155.433 7.06667 156.201 8.432C156.991 9.79733 157.385 11.3867 157.385 13.2C157.385 15.0133 156.98 16.6133 156.169 18C155.38 19.3653 154.303 20.4213 152.937 21.168C151.572 21.9147 150.057 22.288 148.393 22.288ZM148.393 19.728C149.439 19.728 150.42 19.4827 151.337 18.992C152.255 18.5013 152.991 17.7653 153.545 16.784C154.121 15.8027 154.409 14.608 154.409 13.2C154.409 11.792 154.132 10.5973 153.577 9.616C153.023 8.63467 152.297 7.90933 151.401 7.44C150.505 6.94933 149.535 6.704 148.489 6.704C147.423 6.704 146.441 6.94933 145.545 7.44C144.671 7.90933 143.967 8.63467 143.433 9.616C142.9 10.5973 142.633 11.792 142.633 13.2C142.633 14.6293 142.889 15.8347 143.401 16.816C143.935 17.7973 144.639 18.5333 145.513 19.024C146.388 19.4933 147.348 19.728 148.393 19.728ZM186.574 4.464L181.102 22H178.094L173.87 8.08L169.646 22H166.638L161.134 4.464H164.11L168.142 19.184L172.494 4.464H175.47L179.726 19.216L183.694 4.464H186.574Z" 
fill="white"/>
</svg>
