<?xml version="1.0" encoding="UTF-8"?>
<svg version="1.1" xmlns="http://www.w3.org/2000/svg" width="615" height="91">
<path d="M0 0 C3.3 0 6.6 0 10 0 C13.63 12.87 17.26 25.74 21 39 C23.02367894 33.60352282 24.86238476 28.33182715 26.4375 22.8125 C26.8679268 21.32926365 27.29892344 19.84619256 27.73046875 18.36328125 C27.9423584 17.63318848 28.15424805 16.9030957 28.37255859 16.15087891 C29.31273366 12.92794413 30.27586819 9.71286384 31.25 6.5 C31.56453125 5.4584375 31.8790625 4.416875 32.203125 3.34375 C33 1 33 1 34 0 C35.68608966 -0.07205511 37.37500659 -0.08386068 39.0625 -0.0625 C39.98160156 -0.05347656 40.90070312 -0.04445313 41.84765625 -0.03515625 C42.55792969 -0.02355469 43.26820313 -0.01195312 44 0 C55 35.88448567 55 35.88448567 55 40 C55.66 40 56.32 40 57 40 C57.12238037 38.84048828 57.24476074 37.68097656 57.37084961 36.48632812 C57.89822076 32.28581662 58.88469606 28.27898344 60.06640625 24.21875 C60.26475571 23.51979614 60.46310516 22.82084229 60.66746521 22.10070801 C61.29365427 19.89886142 61.92791617 17.69944005 62.5625 15.5 C62.99207574 13.99494549 63.42111706 12.48973833 63.84960938 10.984375 C64.89357785 7.32112532 65.94478593 3.66002542 67 0 C70.3 0 73.6 0 77 0 C75.64707962 6.45473557 73.96441335 12.70404929 71.99609375 18.99609375 C71.71274673 19.91084976 71.42939972 20.82560577 71.13746643 21.76808167 C70.54329855 23.68372609 69.94740532 25.59883616 69.34985352 27.51342773 C68.43286883 30.4523428 67.52168231 33.39300947 66.61132812 36.33398438 C66.03158639 38.20062534 65.45151997 40.06716551 64.87109375 41.93359375 C64.59817001 42.81373642 64.32524628 43.69387909 64.04405212 44.60069275 C63.79031326 45.41236404 63.5365744 46.22403534 63.27514648 47.06030273 C63.0524559 47.77484116 62.82976532 48.48937958 62.60032654 49.22557068 C62 51 62 51 61 53 C57.37 53 53.74 53 50 53 C46.37 41.12 42.74 29.24 39 17 C36.75649224 20.36526165 35.74760703 23.68055519 34.6171875 27.51171875 C34.28849167 28.60405571 34.28849167 28.60405571 33.95315552 29.71846008 C33.25572722 32.04009213 32.5652843 34.363735 31.875 36.6875 C31.40280298 38.26380951 30.93015205 39.83998313 30.45703125 41.41601562 C29.29941837 45.27578775 28.14806509 49.13737771 27 53 C23.37 53 19.74 53 16 53 C13.76832212 47.18201033 11.75660773 41.32664336 9.86328125 35.390625 C9.57897751 34.50139343 9.29467377 33.61216187 9.00175476 32.69598389 C8.4065146 30.83072936 7.81243981 28.96510256 7.21948242 27.09912109 C6.31015481 24.24263301 5.39246588 21.38891346 4.47460938 18.53515625 C3.89531716 16.71631015 3.31652347 14.89730518 2.73828125 13.078125 C2.3258593 11.80149994 2.3258593 11.80149994 1.90510559 10.49908447 C1.65451889 9.7043573 1.40393219 8.90963013 1.14575195 8.09082031 C0.92385696 7.3954718 0.70196198 6.70012329 0.4733429 5.98370361 C0 4 0 4 0 0 Z " fill="#FFFFFF" transform="translate(483,13)"/>
<path d="M0 0 C0.495 0.433125 0.99 0.86625 1.5 1.3125 C2.16 -0.3375 2.82 -1.9875 3.5 -3.6875 C6.8 -3.6875 10.1 -3.6875 13.5 -3.6875 C13.5 13.8025 13.5 31.2925 13.5 49.3125 C9.87 49.3125 6.24 49.3125 2.5 49.3125 C2.17 47.6625 1.84 46.0125 1.5 44.3125 C0.778125 44.93125 0.05625 45.55 -0.6875 46.1875 C-7.37889827 51.24322313 -14.37307096 51.1712278 -22.5 50.3125 C-30.7857532 47.76556003 -35.71868432 42.92518601 -39.8125 35.375 C-42.74445297 28.30241141 -42.7471177 19.85557164 -40.734375 12.5234375 C-39.80353122 10.31453043 -38.77147692 8.34154679 -37.5 6.3125 C-36.943125 5.405 -36.38625 4.4975 -35.8125 3.5625 C-25.89206153 -6.08981851 -11.56060368 -7.80340749 0 0 Z M-26.5 8.3125 C-30.90112997 14.23450975 -32.31919563 20.08764969 -31.5 27.3125 C-29.84657259 32.94673361 -27.67278119 37.23346358 -22.5 40.3125 C-17.39570809 42.74863932 -12.89505593 42.62009883 -7.5 41.3125 C-2.8275624 39.10852 -0.27133304 36.43146658 1.80859375 31.79296875 C3.54659514 25.55776602 3.34569723 18.94355805 1.375 12.8125 C-1.33550175 9.19849766 -4.41480327 6.35509837 -8.5 4.3125 C-15.60855901 3.59339204 -20.82865346 3.79857112 -26.5 8.3125 Z " fill="#FFFFFF" transform="translate(269.5,16.6875)"/>
<path d="M0 0 C6.4150777 6.86264126 8.90657952 14.55042798 8.6875 23.875 C8.13098845 30.93574026 5.37814374 36.5893486 0.6875 41.875 C-7.81057819 48.90027434 -15.39865899 49.88969225 -26.3125 48.875 C-34.47777556 46.51687723 -40.16807352 41.2542153 -44.40625 34.00390625 C-47.57551704 26.94641808 -47.29336438 18.47349673 -45.25 11.125 C-42.4091578 3.81049507 -37.2822738 -1.22019438 -30.20703125 -4.43359375 C-19.38277194 -8.38389045 -9.46284142 -6.07050204 0 0 Z M-31.3125 6.875 C-35.59983256 12.40340251 -36.54664986 17.92855426 -36.3125 24.875 C-35.53419765 29.72442235 -34.16370855 33.50994307 -30.4375 36.8125 C-24.84442027 40.50393262 -21.37976285 41.2796046 -14.74609375 40.40234375 C-10.45832648 39.4732128 -7.7740112 37.72929233 -5.0625 34.2890625 C-1.40281624 28.26583297 -1.58043578 21.71355112 -2.3125 14.875 C-3.9333512 10.09775437 -6.52979912 7.18486327 -10.3125 3.875 C-17.80055614 1.37898129 -25.12933662 1.9537067 -31.3125 6.875 Z " fill="#FFFFFF" transform="translate(464.3125,18.125)"/>
<path d="M0 0 C4.90685312 2.48414925 7.67318564 5.60880802 10.24169922 10.50268555 C11.47185358 14.50289729 11.37222513 18.23415163 11.3203125 22.39453125 C11.3174826 23.25310226 11.31465271 24.11167328 11.31173706 24.9962616 C11.3005807 27.72681875 11.27548459 30.4570427 11.25 33.1875 C11.23996432 35.04361504 11.2308395 36.89973524 11.22265625 38.75585938 C11.20065626 43.29570046 11.16615781 47.83529381 11.125 52.375 C7.825 52.375 4.525 52.375 1.125 52.375 C1.11041748 51.31587402 1.09583496 50.25674805 1.08081055 49.16552734 C1.02262673 45.21792658 0.94539593 41.27088429 0.86254883 37.32373047 C0.82939364 35.61874488 0.80133263 33.91365202 0.77856445 32.20849609 C0.74484432 29.75051366 0.69252206 27.29350594 0.63671875 24.8359375 C0.63032883 24.07944916 0.6239389 23.32296082 0.61735535 22.54354858 C0.48711027 17.80403259 -0.26004101 14.47579249 -2.875 10.375 C-6.92554166 7.67463889 -10.37631174 6.87692261 -15.2265625 7.84375 C-18.7009419 8.8849321 -21.24754653 9.76715445 -23.875 12.3125 C-26.05419859 16.80709708 -26.07762397 21.28035313 -26.19140625 26.203125 C-26.21218735 26.95213074 -26.23296844 27.70113647 -26.25437927 28.47283936 C-26.31957088 30.85680288 -26.37861783 33.24087312 -26.4375 35.625 C-26.48071416 37.24480254 -26.52432937 38.86459443 -26.56835938 40.484375 C-26.67522096 44.44780832 -26.77657333 48.4113486 -26.875 52.375 C-30.175 52.375 -33.475 52.375 -36.875 52.375 C-36.875 34.885 -36.875 17.395 -36.875 -0.625 C-33.575 -0.625 -30.275 -0.625 -26.875 -0.625 C-26.545 1.025 -26.215 2.675 -25.875 4.375 C-25.153125 3.75625 -24.43125 3.1375 -23.6875 2.5 C-16.6418417 -2.82338627 -8.13382551 -3.26441158 0 0 Z " fill="#FFFFFF" transform="translate(390.875,13.625)"/>
<path d="M0 0 C5.02456336 2.81183832 8.4779759 6.26020443 10.23899841 11.90594482 C10.91232824 15.44972999 10.74554272 19.04639949 10.72265625 22.640625 C10.7212413 23.47841492 10.71982635 24.31620483 10.71836853 25.17938232 C10.71278197 27.84879157 10.70023194 30.5181162 10.6875 33.1875 C10.68248326 34.99999879 10.67792066 36.81249889 10.67382812 38.625 C10.66281694 43.06253248 10.64556155 47.50000191 10.625 51.9375 C7.655 51.9375 4.685 51.9375 1.625 51.9375 C1.58012451 50.87837402 1.53524902 49.81924805 1.48901367 48.72802734 C1.31813078 44.78006284 1.12935616 40.8331183 0.93530273 36.88623047 C0.8539575 35.18137675 0.77739675 33.47628747 0.70581055 31.77099609 C0.60176677 29.31269278 0.48025868 26.8557646 0.35546875 24.3984375 C0.32720505 23.64194916 0.29894135 22.88546082 0.26982117 22.10604858 C0.00967523 17.39973321 -0.85965075 14.0483802 -3.375 9.9375 C-6.46113114 7.59148176 -9.88273721 6.87790881 -13.72265625 7.03125 C-18.97477487 7.94313704 -22.01804082 9.63639605 -25.375 13.9375 C-26.59818866 17.60706597 -26.60616124 21.06071003 -26.69140625 24.88671875 C-26.71218735 25.65933548 -26.73296844 26.43195221 -26.75437927 27.22798157 C-26.81971038 29.6935648 -26.87868315 32.15925361 -26.9375 34.625 C-26.98070087 36.29753691 -27.02431566 37.97006319 -27.06835938 39.64257812 C-27.1753749 43.7407775 -27.27668857 47.83908296 -27.375 51.9375 C-30.675 51.9375 -33.975 51.9375 -37.375 51.9375 C-37.375 34.4475 -37.375 16.9575 -37.375 -1.0625 C-34.075 -1.0625 -30.775 -1.0625 -27.375 -1.0625 C-27.045 0.2575 -26.715 1.5775 -26.375 2.9375 C-25.281875 2.298125 -24.18875 1.65875 -23.0625 1 C-15.72996344 -3.28884214 -7.74395486 -3.5410888 0 0 Z " fill="#FFFFFF" transform="translate(160.375,14.0625)"/>
<path d="M0 0 C3.63 0 7.26 0 11 0 C15.95 12.87 20.9 25.74 26 39 C28.89883146 36.10116854 29.85871574 32.48873207 31.2578125 28.7109375 C31.56572723 27.89251373 31.87364197 27.07408997 32.19088745 26.23086548 C33.17403993 23.61412893 34.14959456 20.99463292 35.125 18.375 C35.78986646 16.60137569 36.45522495 14.82793574 37.12109375 13.0546875 C38.75311473 8.70524438 40.3783268 4.35331128 42 0 C45.3 0 48.6 0 52 0 C51.30774624 4.55075356 49.6566884 8.60420962 47.89453125 12.82421875 C47.42027962 13.97528107 47.42027962 13.97528107 46.93644714 15.14959717 C45.8993439 17.66399493 44.8559482 20.17572951 43.8125 22.6875 C43.09396698 24.42633437 42.3758726 26.16535006 41.65820312 27.90454102 C40.18013139 31.4848155 38.69966496 35.06408527 37.21728516 38.64257812 C35.07917042 43.80568247 32.95005878 48.97245631 30.82421875 54.140625 C30.49807083 54.93350418 30.17192291 55.72638336 29.83589172 56.54328918 C29.19968454 58.0900176 28.56349928 59.63675504 27.92733765 61.1835022 C26.45285387 64.76739983 24.97652816 68.35053799 23.5 71.93359375 C23.0153125 73.10978271 22.530625 74.28597168 22.03125 75.49780273 C21.6909375 76.32352783 21.350625 77.14925293 21 78 C17.7 78 14.4 78 11 78 C12.98940556 70.70551296 15.67976487 64.02611897 18.890625 57.19921875 C20.58325528 52.31800679 19.04521524 48.79071561 17.14233398 44.1496582 C16.76201523 43.2155159 16.38169647 42.2813736 15.98985291 41.31892395 C15.57941238 40.32293686 15.16897186 39.32694977 14.74609375 38.30078125 C14.32578384 37.26938522 13.90547394 36.2379892 13.47242737 35.17533875 C12.1316372 31.88599808 10.78512958 28.59904395 9.4375 25.3125 C8.08663817 22.01511129 6.73709857 18.71721374 5.39186096 15.41752625 C4.55501962 13.36504879 3.71488163 11.31391188 2.87120056 9.26423645 C2.49403397 8.33955063 2.11686737 7.41486481 1.72827148 6.4621582 C1.39375473 5.6467305 1.05923798 4.8313028 0.71458435 3.99116516 C0 2 0 2 0 0 Z " fill="#FFFFFF" transform="translate(57,13)"/>
<path d="M0 0 C3.66847067 3.09302429 6.16074229 6.11381439 6.875 10.9375 C6.91625 11.948125 6.9575 12.95875 7 14 C3.7 14 0.4 14 -3 14 C-3.20625 13.236875 -3.4125 12.47375 -3.625 11.6875 C-5.50450456 8.01392291 -7.11106149 7.29631284 -11 6 C-15.24925806 5.94377163 -18.41053907 6.60702605 -22 9 C-22.75060849 11.91382729 -22.75060849 11.91382729 -22 15 C-17.03578279 19.00044007 -11.94823428 20.40962322 -5.921875 21.97851562 C-0.15451779 23.61296705 4.17087348 26.05749212 7.4375 31.3125 C8.53035035 36.53389612 7.69441734 40.55561193 5.4375 45.25 C1.37352386 49.83499872 -2.19303036 51.67599173 -8.31640625 52.3828125 C-16.43301357 52.64548588 -23.24682571 51.97434091 -29.62109375 46.64453125 C-32.98305287 43.09209286 -33.7135904 39.77349339 -34 35 C-30.7 35 -27.4 35 -24 35 C-23.608125 35.94875 -23.21625 36.8975 -22.8125 37.875 C-21.29370533 41.05208525 -21.29370533 41.05208525 -18.8125 42.375 C-13.88439288 43.47013491 -9.76791209 43.66296703 -5 41.875 C-2.65515665 40.08964481 -2.65515665 40.08964481 -2.6875 36.8125 C-2.790625 35.884375 -2.89375 34.95625 -3 34 C-9.26445887 30.54815532 -15.69082645 28.40604226 -22.51171875 26.34375 C-26.85924312 24.66900377 -29.9858601 22.78681792 -32.3125 18.6875 C-33.54950887 13.85191987 -33.68614374 9.81943832 -31.4375 5.3125 C-28.72416078 1.0155749 -24.93085384 -1.106447 -20.078125 -2.5859375 C-13.27034314 -3.94237524 -6.02926228 -3.65370712 0 0 Z " fill="#FFFFFF" transform="translate(38,15)"/>
<path d="M0 0 C3.82916318 -0.62319111 7.19344917 -0.84134007 11 0 C14.1001112 2.90846796 15.96630214 6.29734356 18 10 C18.79957354 11.17556349 19.6095153 12.34427136 20.4375 13.5 C22 16 22 16 22 18 C22.66 18 23.32 18 24 18 C24.2578125 17.31550781 24.515625 16.63101562 24.78125 15.92578125 C27.18836623 10.14715928 29.87593357 4.72097078 34 0 C37.56606808 -1.09413453 40.3999934 -0.86311634 44 0 C42.34400058 4.78087969 39.75815789 8.81868649 37.0625 13.0625 C36.61970703 13.76955078 36.17691406 14.47660156 35.72070312 15.20507812 C35.07198242 16.2347168 35.07198242 16.2347168 34.41015625 17.28515625 C33.99781738 17.9414502 33.58547852 18.59774414 33.16064453 19.27392578 C32 21 32 21 30.05859375 23.12109375 C28.70391668 25.05748566 28.70391668 25.05748566 29.5078125 27.78515625 C31.29079218 31.62649729 33.45651692 34.97194771 35.875 38.4375 C39.15148768 43.18694876 42.19928 47.9521907 45 53 C40.62843953 54.16727531 37.32843009 54.43618404 33 53 C28.26633977 48.207432 25.10887109 41.92130633 22 36 C18.03981643 41.52868324 14.24914497 47.02157325 11 53 C7.37 53 3.74 53 0 53 C4.75979683 43.97279912 10.4059896 35.52385683 16 27 C15.02131821 25.45802548 14.04200884 23.91644929 13.0625 22.375 C12.11890625 20.88806641 12.11890625 20.88806641 11.15625 19.37109375 C9.63121652 16.97716244 8.08638153 14.59713862 6.53125 12.22265625 C5.91624634 11.2793042 5.91624634 11.2793042 5.28881836 10.31689453 C4.47820035 9.07458168 3.66396595 7.83462027 2.84594727 6.59716797 C0 2.22402144 0 2.22402144 0 0 Z " fill="#FFFFFF" transform="translate(296,13)"/>
<path d="M0 0 C3.3 0 6.6 0 10 0 C10 4.29 10 8.58 10 13 C14.62 13 19.24 13 24 13 C24 15.64 24 18.28 24 21 C19.38 21 14.76 21 10 21 C10.09356443 25.64513161 10.19966409 30.2897438 10.31738281 34.93432617 C10.35566221 36.51432451 10.39051697 38.09440969 10.421875 39.67456055 C10.46754876 41.94611645 10.52553784 44.21707509 10.5859375 46.48828125 C10.59748871 47.19463211 10.60903992 47.90098297 10.62094116 48.6287384 C10.73071048 52.27741393 10.92142364 53.88213546 13 57 C15.6556728 57.58348752 15.6556728 57.58348752 18.625 57.6875 C19.62789062 57.75324219 20.63078125 57.81898437 21.6640625 57.88671875 C22.43492187 57.92410156 23.20578125 57.96148437 24 58 C24 60.64 24 63.28 24 66 C21.60347472 66.08139142 19.20974564 66.14067009 16.8125 66.1875 C16.13896484 66.21263672 15.46542969 66.23777344 14.77148438 66.26367188 C10.27805919 66.32942932 7.53769093 65.79622107 4 63 C-3.49784281 55.40284801 -0.09159076 35.56019878 -0.03515625 25.50390625 C-0.02414898 24.00259878 -0.01271786 22.50129395 0 21 C-2.31 21 -4.62 21 -7 21 C-7 18.36 -7 15.72 -7 13 C-4.69 13 -2.38 13 0 13 C0 8.71 0 4.42 0 0 Z " fill="#FFFFFF" transform="translate(192,0)"/>
<path d="M0 0 C5.26519556 0.3169341 9.43201777 3.39308627 13.8125 6.0625 C14.60076172 6.53494141 15.38902344 7.00738281 16.20117188 7.49414062 C18.13812608 8.65631315 20.07078295 9.82504417 22 11 C20.48968084 16.26122171 18.09625809 20.67232586 15.375 25.375 C14.95476563 26.11105469 14.53453125 26.84710938 14.1015625 27.60546875 C13.07247236 29.4063765 12.03689244 31.20357318 11 33 C6.11187553 31.97937229 2.13181482 29.48172346 -2.1875 27.0625 C-3.01958984 26.60681641 -3.85167969 26.15113281 -4.70898438 25.68164062 C-5.49982422 25.24142578 -6.29066406 24.80121094 -7.10546875 24.34765625 C-7.82887451 23.94554932 -8.55228027 23.54344238 -9.29760742 23.12915039 C-11 22 -11 22 -12 20 C-11.11962891 18.04467773 -11.11962891 18.04467773 -9.7265625 15.68359375 C-8.9840625 14.41418945 -8.9840625 14.41418945 -8.2265625 13.11914062 C-7.69804688 12.23419922 -7.16953125 11.34925781 -6.625 10.4375 C-6.10421875 9.54869141 -5.5834375 8.65988281 -5.046875 7.74414062 C-1.18362999 1.18362999 -1.18362999 1.18362999 0 0 Z " fill="#68C2A3" transform="translate(593,36)"/>
</svg>
